# xmcd
#
# Track frame offsets:
#	150
#	16100
#	33751
#	52106
#	68085
#	86964
#	103437
#	123444
#	140113
#	155652
#	172772
#	189328
#	210193
#	228580
#	246403
#	260643
#	278894
#	301949
#	321095
#	338572
#
# Disc length: 4775 seconds
# Revision: 0
# Processed by: cddbd v1.5.2PL0 Copyright (c) Steve Scherf et al.
# Submitted via: dBpowerAMP V12.0
#
DISCID=1e12a514
DTITLE=Various Artist - Latest and Greatest Country Love
DYEAR=1900
DGENRE=Country
TTITLE0=Shania Twain - You're Still The One
TTITLE1=Lonestar - Amazed
TTITLE2=LeAnn Rimes - How Do I Live
TTITLE3=Ronan Keating - If Tomorrow Never Comes
TTITLE4=Alison Krauss - When You Say Nothing At All
TTITLE5=Vince Gill - Pretty Little Adriana
TTITLE6=Sheryl Crow - Run Baby Run
TTITLE7=The Band Perry - If I Die Young
TTITLE8=Big and Rich - Lost In This Moment
TTITLE9=Billy Currington - Don't
TTITLE10=Kim Richey - Come Around
TTITLE11=Sugarland - Stay
TTITLE12=Ryan Adams - Wonderwall
TTITLE13=Trisha Yearwood - She's In Love With The Boy
TTITLE14=George Strait - You Look So Good In Love
TTITLE15=Tracy Byrd - Keeper Of The Stars
TTITLE16=Counting Crows - Like Teenage Gravity
TTITLE17=Graham Gouldman - Battlefield
TTITLE18=Toby Keith - Whiskey Girl
TTITLE19=The Mavericks - Dance The Night Away
EXTD=
EXTT0=
EXTT1=
EXTT2=
EXTT3=
EXTT4=
EXTT5=
EXTT6=
EXTT7=
EXTT8=
EXTT9=
EXTT10=
EXTT11=
EXTT12=
EXTT13=
EXTT14=
EXTT15=
EXTT16=
EXTT17=
EXTT18=
EXTT19=
PLAYORDER=
